<svg width="16" height="10" viewBox="0 0 16 10" fill="none" xmlns="http://www.w3.org/2000/svg">
<path d="M3.58185 1.4159C4.05669 0.836162 4.76654 0.5 5.51592 0.5H13C14.3807 0.5 15.5 1.61929 15.5 3V7C15.5 8.38071 14.3807 9.5 13 9.5H5.51592C4.76655 9.5 4.05669 9.16384 3.58185 8.5841L1.94376 6.5841C1.18919 5.66282 1.18919 4.33718 1.94376 3.4159L3.58185 1.4159Z" stroke="#7AD872"/>
<path d="M10.0391 2.77344L10.9648 4.3125L11.9023 2.77344H12.75L11.3672 4.85938L12.793 7H11.957L10.9805 5.41406L10.0039 7H9.16406L10.5859 4.85938L9.20703 2.77344H10.0391Z" fill="#7AD872"/>
</svg>
